<?xml version="1.0" encoding="utf-8"?>
<!-- Generator: Adobe Illustrator 26.0.1, SVG Export Plug-In . SVG Version: 6.00 Build 0)  -->
<svg version="1.1" id="Ebene_1" xmlns="http://www.w3.org/2000/svg" xmlns:xlink="http://www.w3.org/1999/xlink" x="0px" y="0px"
	 width="1200px" height="1200px" viewBox="0 0 1200 1200" style="enable-background:new 0 0 1200 1200;" xml:space="preserve">
<style type="text/css">
	.st0{fill:#1B8C30;}
	.st1{fill:#FFFFFF;}
</style>
<g>
	<path class="st0" d="M600,1200c331.4,0,600-268.7,600-600S931.3,0,600,0S0,268.7,0,600C0,931.4,268.6,1200,600,1200"/>
	<g>
		<path class="st1" d="M640.6,705.2h-32.9V411.9h37.7c17.8,0,33.3,2.6,46.4,7.8c13.1,5.2,24.1,13.4,32.9,25
			c8.8,11.5,15.2,26.6,19.5,45.3s6.5,41.6,6.5,68.7C750.8,656.3,714,705.2,640.6,705.2 M872.1,368.1l-76,159.7
			c-3.1-49.7-15.2-87.6-36.3-113.7c-24.8-30.7-62.3-46-112.7-46h-51.9v-0.2h-31.4v331.6l-96.5-202.6H437l-95.5,202.6V367.8
			l-34.7,0.1h-9.2v382.5h39.9H362l88.4-179.7L538,750.4H595v-0.3h37.7c20.6,0,38.9-2.3,55.1-6.9c16.1-4.6,30.3-11.1,42.5-19.4
			c5.8-4,11.2-8.4,16.1-13.1v39.6H791V644.5L922.6,368L872.1,368.1z"/>
		<g>
			<rect x="569.1" y="770.7" class="st1" width="17.6" height="99"/>
			<rect x="686.7" y="800.4" class="st1" width="17.6" height="69.3"/>
			<rect x="686.7" y="770.7" class="st1" width="17.6" height="13.8"/>
			<path class="st1" d="M737.1,827.9c0-6.7,1-11,3-12.9s6.3-3,12.7-3c6.8,0,11.2,0.8,13.1,2.5c2,1.7,3,5.2,3,10.8l0.1,2.8
				L737.1,827.9L737.1,827.9z M753.7,799.5c-13.6,0-22.9,2.3-27.6,7c-4.7,4.7-7.1,13.7-7.1,27.2c0,15.1,2.3,25.1,6.8,29.8
				c4.5,4.7,14,7.1,28.7,7.1c21.5,0,32.3-6.8,32.3-20.3v-2.7H769c0,4.4-1,7.3-2.9,8.6c-2,1.3-6.2,2-12.6,2c-6.7,0-11.1-1.1-13.3-3.4
				c-2.2-2.3-3.4-6.8-3.4-13.6c0-0.5,0.1-1.5,0.2-3.1h49.7v-5.1c0-13.2-2.2-22.1-6.7-26.7C775.6,801.8,766.7,799.5,753.7,799.5"/>
			<path class="st1" d="M836.8,845.8c0,7.8-2.8,11.7-8.6,11.7c-5.2,0-7.8-3.2-7.8-9.7v-34.9h28.3v-12.6h-28.3v-15.5h-17.6v15.5h-9.6
				v12.6h9.6v37.1c0,13.5,7.9,20.4,23.5,20.4c15.7,0,24.1-5.3,25.1-15.8c0.2-2.3,0.3-5,0.3-8.2V843h-15L836.8,845.8L836.8,845.8z"/>
			<path class="st1" d="M896.4,829.7l-3.6,14.7c-0.3,1.2-0.8,3.6-1.6,7.4l-1.6,7.4h-0.5l-2.2-7.4c-1.2-4-1.9-6.5-2.2-7.4l-4.6-14.7
				l-9.3-29.4H852l24.1,69.3h9c-2,12.2-6.8,18.4-14.2,18.4c-1,0-2.3,0-3.9-0.1v12.2c2.2,0.2,4.3,0.3,6.3,0.3
				c8.9,0,15.3-1.8,19.3-5.4c4-3.6,7.4-10.7,10.2-21l19.3-73.7h-18.5L896.4,829.7z"/>
			<path class="st1" d="M648.8,853.1c-2,2.9-6.5,4.3-13.5,4.3c-6.8,0-11.2-1.5-13-4.4c-2-2.9-2.9-9.4-2.9-19.4c0-8.7,1-14.3,2.9-17
				c2-2.6,6.2-4,12.7-4c6.9,0,11.4,1.3,13.5,4c2.2,2.7,3.3,8.3,3.3,16.7C651.8,843.8,650.8,850.4,648.8,853.1 M651.9,810.2l-0.3,0.1
				c-3-7.2-10.5-10.8-22.4-10.8c-10.4,0-17.5,2.4-21.6,7.2c-4.1,4.8-6.1,13.4-6.1,25.8c0,15.3,1.9,25.5,5.7,30.5s11.5,7.5,23.1,7.5
				c11.6,0,19-4.1,22.4-12.1l0.3,0.1l-0.6,11.2h17.1v-99h-17.6L651.9,810.2L651.9,810.2z"/>
			<path class="st1" d="M387.7,832.5c-0.9,4.2-1.8,8.5-2.7,12.9l-1.2,6.5l-1.3,6.5h-0.4l-1.5-6.5l-1.5-6.5
				c-0.6-2.5-1.7-6.8-3.2-12.8l-8-32.2h-22.4l-8,32.2c-1.3,5.3-2.4,9.6-3.2,12.8l-1.5,6.5l-1.5,6.5h-0.3l-1.3-6.5l-1.2-6.5
				c-0.9-4.6-1.7-8.9-2.6-12.9l-7.1-32.2h-17.7l16.3,69.3H344l7.4-31.1c1.3-5.4,2.2-9.5,2.8-12.1l1.3-6.2l1.3-6.1h0.5l1.3,6.1
				l1.3,6.1c0.6,2.8,1.6,6.9,2.8,12.2l7.4,31.1h26l16.4-69.3h-17.6L387.7,832.5z"/>
			<path class="st1" d="M467.5,853.2c-1.9,2.8-6.6,4.2-13.8,4.2c-7.6,0-12.3-1.3-14.2-3.9c-1.9-2.6-2.8-9.2-2.8-19.5
				c0-9.2,1-14.9,3-17.4s6.7-3.7,13.9-3.7c7.3,0,11.9,1.2,13.8,3.7s3,8.2,3,16.9C470.3,843.9,469.3,850.5,467.5,853.2 M453.6,799.6
				c-14.6,0-24.1,2.2-28.5,6.5c-4.4,4.4-6.5,13.8-6.5,28.4c0,15.1,2.2,24.9,6.7,29.4c4.4,4.5,14.1,6.7,29.2,6.7
				c13.8,0,22.9-2.4,27.2-7.2c4.3-4.8,6.5-14.8,6.5-30.3c0-13.7-2.2-22.8-6.6-27.1C477.2,801.7,467.9,799.6,453.6,799.6"/>
			<path class="st1" d="M540,799.3c-9.1,0-15.6,3.6-19.8,10.9l-0.4-0.1l1.1-9.8h-17.6v69.3h17.6v-40.8c0-11,4.4-16.4,13-16.4
				c6.1,0,9.2,3.7,9.2,11.1c0,0.6-0.1,1.8-0.3,3.7h16.6v-4.9C559.4,806.9,552.9,799.3,540,799.3"/>
		</g>
	</g>
</g>
</svg>
